<?xml version="1.0" encoding="UTF-8" standalone="no"?>
<!-- Created with Inkscape (http://www.inkscape.org/) -->

<svg
   width="1.4531357in"
   height="1.6779644in"
   viewBox="0 0 36.909647 42.620297"
   version="1.1"
   id="svg5"
   xmlns="http://www.w3.org/2000/svg"
   xmlns:svg="http://www.w3.org/2000/svg">
  <defs
     id="defs2" />
  <g
     id="layer1"
     transform="translate(-66.518941,-90.848519)">
    <g
       id="g39729"
       transform="translate(0,-14.022917)"
       style="fill:#81272e">
      <g
         id="g16842"
         transform="matrix(0.02367794,0,0,-0.02367794,19.385397,245.74263)">
        <path
           d="m 2770.04,5949.47 l -779.43,-449.98 v -900.02 l 779.43,-450 l 779.39,450 v 900.02 z m 641.41,-1270.34 l -641.41,-370.29 l -641.42,370.29 v 740.69 l 641.42,370.32 l 641.41,-370.32 v -740.69"
           id="path68" />
      </g>
      <path
         id="path1051"
         style="stroke-width:0.1937"
         d="m 85.899798,111.61174 c -1.349551,0.005 -4.013187,1.59476 -3.218007,3.87251 c 0.275636,0.82056 0.822956,1.76061 -0.350695,1.9022 c -1.131116,3.47257 1.674968,8.95648 5.953642,9.39864 c -3.343932,-1.71241 -4.95128,-5.09999 -3.390149,-9.45502 c -0.605935,-0.47724 -0.735347,-1.32427 -0.174777,-2.0766 c -0.06024,0.53393 0.05786,1.43471 0.944291,1.46524 c 0.393078,0.10178 1.106574,0.17943 1.586293,0.30039 c 4.047027,1.02035 6.885746,4.33877 6.896809,7.09353 c 0.200792,3.0796 -2.23054,3.53924 -4.624216,3.21421 c 0.265661,0.13919 1.608684,0.71695 2.666406,0.92424 c 1.818754,0.37042 4.008388,1.36131 5.35912,2.82377 c -0.364796,-1.13771 -1.734479,-2.60768 -3.546954,-3.42302 c 0.875178,-0.56881 1.14661,-1.54096 1.346436,-1.51064 c 0.964026,1.07181 1.949399,-1.48105 1.224996,-3.35117 c -0.847724,-0.68383 -0.986259,-0.97885 -0.789171,-1.87952 c -0.634911,-1.50054 -1.623404,-2.84323 -2.832872,-3.87854 c -1.279781,-1.09552 -2.558768,-1.68553 -2.471951,-2.6282 c -0.423004,-0.3826 -1.258783,-0.78252 -1.844321,-1.06915 c -0.175784,2.42353 -2.588055,1.44736 -2.415196,-0.0624 c 0.07796,-0.64371 1.012067,-1.11333 1.43724,-0.27732 c 0.295277,-0.80553 -0.743249,-1.38679 -1.756924,-1.38314 z m -2.263876,0.0136 c -1.70997,0.17247 -4.416918,1.50363 -4.574668,4.10365 c -0.796555,0.79464 -1.306356,1.15836 -1.62263,1.16978 c -0.603901,0.0218 -0.169198,-1.62967 0.960948,-2.42996 c -1.718706,0.89774 -2.130727,1.60509 -2.748515,2.9668 c 0.0085,1.01586 -0.509413,2.33119 -1.147444,2.33953 c -0.519989,0.006 -0.987312,-0.7576 0.04653,-2.19199 c -0.398518,0.19749 -1.691239,1.53862 -1.808369,2.7958 c -0.03872,0.41561 0.597392,0.6864 0.45663,1.35062 c -0.678689,1.29616 -1.236507,2.06031 -1.949113,2.33159 c 0.721263,0.45001 0.601034,1.88571 -0.382094,2.23927 c -0.142196,0.51655 -0.374559,1.24362 -0.256518,1.65554 c 0.222698,-0.71363 1.108278,-1.0513 1.012396,-0.0462 c -0.103437,0.75938 -0.479041,1.15429 -0.913648,1.48606 c -0.08921,0.36603 -0.164257,1.31843 0.13317,1.74254 c -0.07413,-0.8134 0.947583,-1.48729 1.130417,-0.50242 c 0.113587,0.73668 -0.548444,1.20094 -0.920078,1.46866 c 0.02013,0.5165 0.260547,1.39462 0.628405,1.72967 c -0.295744,-1.09451 0.66507,-1.59338 1.074437,-1.11718 c 0.359722,0.46842 0.185275,1.12878 -0.353736,1.7785 c 0.194902,0.45042 0.735481,1.17998 1.221981,1.26132 c -0.528746,-0.61016 -0.05774,-1.32694 0.523979,-0.99877 c 0.553404,0.50177 0.638786,0.90064 0.596986,1.67786 c 1.06516,0.69004 1.693621,1.01036 1.972938,1.03546 c -0.375353,-0.41293 -0.455875,-0.91177 -0.387401,-1.34494 c 0.339905,0.19888 0.702416,0.38766 1.089566,0.56408 c 2.238444,1.48816 7.636669,1.79794 6.504489,4.41805 c 0.759054,-0.63085 0.654223,-1.61961 0.04087,-2.29149 c -1.393154,-1.38004 -3.446614,-1.91833 -3.213475,-2.69516 c 0.328458,-1.09446 5.012334,1.82256 4.42637,3.92811 c 0.936718,-1.38661 -1.503488,-4.09014 -3.779471,-4.75017 c -1.1722,-0.32762 -2.326534,0.56708 -0.944637,1.62635 c -1.588307,-0.70679 -1.84343,-1.60545 -1.392979,-2.06374 c 0.384689,-0.39111 1.298492,-0.44098 2.176866,0.001 c -0.669042,-0.63848 -1.53994,-0.78901 -2.027058,-0.74721 c -1.048094,0.0899 -1.260177,1.26853 -0.874675,1.87119 c -1.026362,-0.53794 -1.212121,-1.22467 -1.00029,-1.73536 c 0.257835,-0.62153 1.320341,-1.07076 2.238154,-0.76497 c -0.906829,-0.6815 -2.068723,-0.66365 -2.730347,-0.11387 c -0.354511,0.29458 -0.514992,0.76189 -0.37113,1.35931 c -0.134854,-0.1052 -0.268547,-0.21453 -0.401406,-0.32574 c -0.485725,-0.96185 0.02295,-2.69188 1.892746,-2.61117 c -1.225486,-1.70691 -3.062388,-0.13359 -3.041702,1.51933 c -0.166853,-0.18218 -0.327121,-0.37132 -0.480087,-0.56673 c -0.554525,-2.11303 1.548967,-3.32826 2.2669,-2.96149 c -0.10367,-0.49114 -0.40594,-1.21911 -0.638981,-1.21252 c -1.785669,-0.11689 -2.462827,1.49271 -2.670203,2.42959 c -0.0616,-0.14607 -0.118254,-0.2953 -0.169855,-0.44719 c -0.248984,-1.7991 0.876728,-3.54989 2.620634,-3.66633 c 0.08151,-0.34952 -0.129179,-1.55793 -0.534943,-1.58779 c -0.550168,-0.0604 -1.81914,0.77856 -2.502613,2.11253 c 8.05e-4,-0.078 0.0026,-0.1562 0.0049,-0.23455 c 0.324973,-1.55175 1.006334,-3.30346 3.02545,-3.59103 c 0.09532,-0.28387 0.239918,-1.33269 0.05939,-1.39601 c -0.40648,-0.23617 -1.635685,0.64152 -2.114824,1.07746 c 0.05102,-0.0932 0.10363,-0.18542 0.15928,-0.27617 c 1.435864,-2.3414 2.397511,-2.41979 2.592645,-2.89075 c 0.50858,-1.58765 1.626117,-2.95763 3.335274,-4.15283 c -1.107155,1.25048 -3.18504,4.49281 -3.00085,8.82359 c 0.268373,4.40065 1.912659,7.58575 5.551113,9.92185 c 1.485781,0.95396 2.365047,1.55238 3.017876,2.55102 c 0.975361,1.43158 1.055088,3.57434 -1.0627,4.3477 c 1.517839,0.19071 3.192749,-1.06138 3.557351,-2.76743 c -0.07109,-0.46688 -0.144287,-0.8542 -0.512996,-1.20951 c 0.167319,0.0541 0.598108,0.34411 0.74567,0.59928 c 0.219656,-0.61169 0.259791,-1.56359 0.06469,-2.22378 c -1.644538,0.3613 -2.780438,-2.37545 -0.381358,-2.51395 c 0.967903,0 1.934043,0.68032 2.468173,1.73763 c 0.879808,1.85714 0.443459,3.90275 -1.615812,5.18944 c 3.304011,-0.81182 4.499029,-4.83811 2.990642,-7.49986 c -1.189672,0.41314 -1.594021,-0.0186 -1.620732,-0.39837 c -0.03482,-0.49524 1.155928,-1.46529 4.665087,-0.96397 c -0.09129,-0.30548 -0.176925,-0.44111 -0.377952,-0.64919 c 0.328383,0.007 0.994598,0.41096 1.282884,0.91894 c 1.277648,0.14022 2.78863,1.1801 3.169973,2.30587 c 0.199876,-1.64636 -2.23018,-3.23511 -4.422965,-4.09835 c -2.391255,-0.94137 -4.893965,-1.35155 -5.977488,-2.56123 c -1.579048,0.26279 -4.796455,-1.46498 -6.362235,-3.45712 c -1.045305,-1.32995 -1.767111,-4.06031 -1.494749,-6.24382 c 0.274861,-0.10689 0.536493,0.0376 0.870142,-0.37226 c 0.446655,-0.79608 0.170244,-1.57087 -0.05827,-2.72922 c -0.299559,-1.51855 1.202803,-2.73242 2.265019,-3.03375 z m 5.345306,4.15019 c 0.252663,-0.006 0.499399,0.0186 0.724111,0.0908 c 0.252275,0.13107 0.17588,0.34811 0.415004,0.42825 c 2.015242,1.0709 3.641207,3.26674 4.030273,4.83193 c -1.249119,-1.56638 -2.782647,-3.9578 -6.743594,-5.06383 c 0.434723,-0.11516 1.018324,-0.27411 1.574206,-0.28715 z m -2.614204,2.07509 c -1.744682,3.1774 -0.155154,7.24529 3.904656,7.19493 c 0.670767,-0.036 1.152501,0.11581 1.410374,0.48348 c 0.158932,0.2266 0.324952,0.89444 -0.772904,0.97871 c 3.026514,0.5237 2.811278,-3.54033 0.92802,-5.46256 c -0.574923,-0.63398 -1.679443,-0.70431 -2.261611,-0.28602 c -0.685855,0.49281 -1.035039,1.71863 0.263704,2.64068 c -1.631889,-0.2882 -2.903166,-3.06987 -0.296613,-4.33291 c -0.965754,-0.56371 -1.843004,-1.05046 -3.175626,-1.21631 z m -6.13146,5.52009 c 2.953355,6.42048 9.561918,5.35695 11.943991,6.99555 c -1.239703,-0.11509 -3.768156,0.92472 -3.272107,2.40878 c -0.74263,-0.90418 -0.279317,-1.58662 0.278832,-2.22038 c -4.322529,-0.84269 -8.153114,-3.68779 -8.950716,-7.18395 z m -1.944948,2.05505 c 0.240363,3.59545 3.72254,6.92085 6.973592,8.13316 c 0.255956,-0.45628 0.643241,-0.78547 1.458063,-0.80584 c -1.083252,0.56513 -1.176905,1.31661 -0.980997,2.13981 c -3.269474,-1.11962 -7.664774,-5.14382 -7.450658,-9.46713 z" />
    </g>
  </g>
</svg>
